<svg width="100%" height="100%" viewBox="0 -20 1170 604" version="1.1" xmlns="http://www.w3.org/2000/svg" xmlns:xlink="http://www.w3.org/1999/xlink" xml:space="preserve" xmlns:serif="http://www.serif.com/" style="fill-rule:evenodd;clip-rule:evenodd;stroke-linejoin:round;stroke-miterlimit:2;background-color:#fff;">
    <g transform="matrix(3.35389,0,0,3.35389,65.84,-613.937)">
        <g id="Layer-1" serif:id="Layer 1" >
            <g transform="matrix(0.636644,0,0,0.636644,264.869,211.322)">
                <path d="M0,8.212C5.99,21.363 9.31,35.791 9.31,50.923C9.31,51.403 9.378,51.869 9.399,52.345L58.925,8.35L58.925,-44.133L0,8.212Z" style="fill:rgb(8,205,215);fill-rule:nonzero;"/>
            </g>
            <g transform="matrix(0.636644,0,0,0.636644,260.805,243.742)">
                <path d="M0,0C0,-52.415 -46.898,-95.061 -104.544,-95.061L-104.544,-55.826C-69.353,-55.826 -40.651,-31.893 -39.358,-2.077L-66.014,21.602C-58.913,33.966 -54.266,47.7 -52.707,62.263L-28.928,41.14C-12.031,73.013 23.86,95.061 65.309,95.061L65.309,55.826C29.298,55.826 0,30.783 0,0" style="fill:rgb(8,205,215);fill-rule:nonzero;"/>
            </g>
            <g transform="matrix(0.636644,0,0,0.636644,259.215,230.007)">
                <path d="M0,189.848L0,150.613C-36.013,150.613 -65.311,125.57 -65.311,94.787C-65.311,42.372 -112.209,-0.273 -169.854,-0.273L-169.854,38.962C-139.257,38.962 -113.578,57.066 -106.528,81.385L-169.854,137.639L-169.854,190.121L-98.465,126.705C-84.008,163.466 -45.336,189.848 0,189.848" style="fill:rgb(8,205,215);fill-rule:nonzero;"/>
            </g>
            <g transform="matrix(0.398318,0,0,0.398318,-125.038,110.944)">
                <g transform="matrix(576,0,0,576,683.411,602.791)">
                </g>
                <text x="325.349px" y="540.791px" style="font-family:'Arial';font-weight:500;font-size:476px;fill:rgb(61,61,61);">w</text>
            </g>
        </g>
    </g>
</svg>
