<svg width="184" height="184" viewBox="0 0 184 184" fill="none" xmlns="http://www.w3.org/2000/svg">
<g id="icon-success">
<g id="Group 460627">
<circle id="Ellipse 177" cx="92" cy="92" r="71" fill="#202324"/>
<circle id="Ellipse 178" opacity="0.1" cx="91.9995" cy="92" r="54.7935" fill="#00FF57"/>
<path id="Vector" d="M92.0004 49.5543C83.6054 49.5543 75.399 52.0437 68.4188 56.7077C61.4387 61.3717 55.9983 68.0008 52.7857 75.7567C49.5731 83.5126 48.7325 92.0471 50.3703 100.281C52.0081 108.514 56.0506 116.077 61.9867 122.014C67.9229 127.95 75.486 131.992 83.7196 133.63C91.9533 135.268 100.488 134.427 108.244 131.215C116 128.002 122.629 122.562 127.293 115.581C131.957 108.601 134.446 100.395 134.446 92C134.446 80.7427 129.974 69.9465 122.014 61.9864C114.054 54.0263 103.258 49.5543 92.0004 49.5543ZM85.9367 108.948L70.7775 93.7887L75.5981 88.9681L85.9367 99.3067L108.403 76.8408L113.241 81.6493L85.9367 108.948Z" fill="#00FF57"/>
</g>
</g>
</svg>
