
<svg xmlns="http://www.w3.org/2000/svg" viewBox="0 0 30 30" x="0px" y="0px"><title>account, user, profile, avatar, people_5</title><g data-name="Layer 59"><path d="M16,29A13,13,0,1,1,29,16,13,13,0,0,1,16,29ZM16,5A11,11,0,1,0,27,16,11,11,0,0,0,16,5Z"/><path fill="#CBB26B" d="M16,3A13,13,0,1,0,29,16,13,13,0,0,0,16,3Zm0,6a4,4,0,1,1-4,4A4,4,0,0,1,16,9Zm0,18a11,11,0,0,1-7.8-3.25C9,21,12.2,19,16,19s7,2,7.8,4.75A11,11,0,0,1,16,27Zm7.8-3.25"/></g><text x="0" y="47" fill="#CBB26B" font-size="5px" font-weight="bold" font-family="'Helvetica Neue', Helvetica, Arial-Unicode, Arial, Sans-serif">Created by Fahrur Razi Siddiq</text><text x="0" y="52" fill="#CBB26B" font-size="5px" font-weight="bold" font-family="'Helvetica Neue', Helvetica, Arial-Unicode, Arial, Sans-serif">from the Noun Project</text></svg>