<svg viewBox="0 0 500 500" xmlns="http://www.w3.org/2000/svg">
  <g id="Page-1" stroke="none" stroke-width="1" fill="none" fill-rule="evenodd" transform="matrix(1.0430070161819458, 0, 0, 1, 202.71533203125, 253.16749572753906)" style="">
    <g id="xx-network-logo--color" fill-rule="nonzero">
      <path d="M 162.661 -152.289 C 174.206 -127.829 181.421 -100.647 181.421 -72.79 C 181.421 -72.11 181.421 -70.749 181.421 -70.069 L 279.564 -152.289 L 279.564 -250.136 L 162.661 -152.289 Z" id="Path" fill="#0DB9CB" style=""/>
      <path d="M 150.389 -72.11 C 150.389 -169.956 57.295 -249.457 -56.722 -249.457 L -56.722 -176.071 C 13.275 -176.071 70.285 -131.223 72.449 -75.504 L 19.771 -31.34 C 33.483 -8.235 42.864 17.585 46.472 44.764 L 93.378 5.355 C 126.574 65.15 198.014 105.922 280.283 105.922 L 280.283 32.534 C 208.117 31.854 150.389 -15.03 150.389 -72.11 Z" id="Path" fill="#0DB9CB" style=""/>
      <path d="M 145.34 241.818 L 145.34 168.437 C 73.897 168.437 16.166 121.548 16.166 64.47 C 16.166 -33.377 -76.925 -112.879 -190.945 -112.879 L -190.945 -39.492 C -130.327 -39.492 -79.091 -5.516 -65.38 40.009 L -92.801 63.115 L -149.09 110.677 L -190.945 145.331 L -190.945 243.177 L -49.504 124.948 C -21.36 192.218 55.133 241.818 145.34 241.818 Z" id="Path" fill="#0DB9CB" style=""/>
    </g>
  </g>
</svg>